<?xml version="1.0" encoding="iso-8859-1"?>
<!-- Generator: Adobe Illustrator 19.0.0, SVG Export Plug-In . SVG Version: 6.00 Build 0)  -->
<svg version="1.1" id="Capa_1" xmlns="http://www.w3.org/2000/svg" xmlns:xlink="http://www.w3.org/1999/xlink" x="0px" y="0px"
	 viewBox="0 0 490 490" style="enable-background:new 0 0 490 490;" xml:space="preserve">
<g>
	<rect x="155.55" y="296.67" width="14.303" height="75.366"/>
	<path d="M214.25,328.027c-9.496-0.508-15.096-1.256-16.785-2.213c-1.697-0.957-2.542-3.813-2.542-8.553
		c0-4.008,1.039-6.639,3.118-7.896c2.079-1.256,6.505-1.884,13.279-1.884c5.742,0,9.391,0.553,10.938,1.63
		c1.54,1.092,2.482,3.753,2.811,7.985c0,0.329,0.037,0.837,0.112,1.54h13.974v-2.871c0-7.806-1.974-13.04-5.914-15.731
		c-3.94-2.692-11.574-4.038-22.916-4.038c-11.963,0-19.941,1.466-23.933,4.396c-3.993,2.916-5.989,8.793-5.989,17.585
		c0,8.613,1.652,14.221,4.965,16.838c3.312,2.617,10.939,4.277,22.864,4.965l7.896,0.508c4.456,0.254,7.35,0.987,8.695,2.183
		c1.346,1.196,2.019,3.604,2.019,7.253c0,4.935-0.89,8.09-2.654,9.451c-1.765,1.361-5.854,2.034-12.255,2.034
		c-8.21,0-13.234-0.583-15.081-1.764c-1.839-1.181-2.759-4.396-2.759-9.66l-0.052-1.6h-13.914l0.052,2.751
		c0,8.763,1.944,14.58,5.824,17.451c3.888,2.871,11.754,4.307,23.604,4.307c13.182,0,21.705-1.466,25.571-4.381
		c3.866-2.931,5.795-9.406,5.795-19.41c0-8.135-1.645-13.488-4.942-16.075C232.74,330.255,225.473,328.656,214.25,328.027z"/>
	<path d="M282.229,295.997c-15.387,0-25.062,2.303-29.002,6.909c-3.933,4.606-5.907,15.881-5.907,33.84
		c0,15.103,2.004,24.868,6.019,29.294c4.015,4.441,12.875,6.654,26.573,6.654c15.193,0,24.778-2.243,28.741-6.729
		c3.948-4.501,5.937-15.372,5.937-32.644c0-15.791-1.974-25.959-5.922-30.505C304.735,298.27,295.912,295.997,282.229,295.997z
		 M297.407,356.708c-1.764,2.482-7.088,3.738-15.956,3.738c-9.271,0-14.864-1.107-16.763-3.32
		c-1.899-2.213-2.841-8.718-2.841-19.544c0-14.625,0.808-23.163,2.423-25.63c1.63-2.467,7.238-3.693,16.853-3.693
		c9.271,0,14.744,1.151,16.419,3.454c1.675,2.303,2.512,9.765,2.512,22.385C300.054,346.69,299.172,354.226,297.407,356.708z"/>
	<path d="M77.788,0v265.111H42.189v139.614h0.001l35.59,35.591L77.788,490h370.023V102.422L345.388,0H77.788z M395.793,389.413
		H57.501V280.423h338.292V389.413z M353.022,36.962l57.816,57.804h-57.816V36.962z"/>
</g>
<g>
</g>
<g>
</g>
<g>
</g>
<g>
</g>
<g>
</g>
<g>
</g>
<g>
</g>
<g>
</g>
<g>
</g>
<g>
</g>
<g>
</g>
<g>
</g>
<g>
</g>
<g>
</g>
<g>
</g>
</svg>
