<?xml version="1.0" encoding="iso-8859-1"?>
<!-- Generator: Adobe Illustrator 19.0.0, SVG Export Plug-In . SVG Version: 6.00 Build 0)  -->
<svg version="1.1" id="Capa_1" xmlns="http://www.w3.org/2000/svg" xmlns:xlink="http://www.w3.org/1999/xlink" x="0px" y="0px"
	 viewBox="0 0 360 360" style="enable-background:new 0 0 360 360;" xml:space="preserve">
<g id="XMLID_783_">
	<path id="XMLID_784_" d="M345.594,127.586h-51.188V77.834L211.384,0H14.406v360h280v-49.688h51.188V127.586z M315.594,280.313h-210
		V157.586h210V280.313z"/>
	<rect id="XMLID_787_" x="141.272" y="182.425" width="12.695" height="65.32"/>
	<path id="XMLID_788_" d="M190.399,237.073c-2.516,0-4.968-0.307-7.359-0.92c-2.393-0.613-4.57-1.364-6.532-2.255
		c-1.964-0.888-3.666-1.777-5.106-2.668c-1.441-0.888-2.438-1.609-2.989-2.161l-5.612,10.947c3.802,2.7,8.096,4.784,12.88,6.256
		c4.784,1.473,9.628,2.208,14.536,2.208c3.189,0,6.24-0.354,9.154-1.058c2.912-0.704,5.488-1.824,7.728-3.358
		c2.238-1.532,4.017-3.542,5.336-6.025c1.318-2.484,1.979-5.475,1.979-8.97c0-3.005-0.492-5.535-1.473-7.591
		c-0.982-2.054-2.378-3.817-4.186-5.29c-1.811-1.472-4.018-2.698-6.624-3.68c-2.607-0.98-5.506-1.9-8.694-2.76
		c-2.454-0.612-4.616-1.196-6.486-1.748c-1.871-0.552-3.419-1.164-4.645-1.84c-1.227-0.675-2.162-1.456-2.806-2.347
		c-0.645-0.888-0.967-2.008-0.967-3.357c0-2.33,0.858-4.141,2.576-5.428c1.717-1.288,4.324-1.933,7.82-1.933
		c1.962,0,3.895,0.246,5.796,0.736c1.9,0.491,3.664,1.09,5.29,1.794c1.624,0.706,3.004,1.426,4.14,2.162
		c1.135,0.735,1.916,1.319,2.347,1.748l5.611-10.305c-2.884-1.962-6.256-3.664-10.12-5.105c-3.863-1.441-8.096-2.162-12.695-2.162
		c-3.313,0-6.41,0.445-9.292,1.334c-2.884,0.89-5.414,2.193-7.59,3.91c-2.179,1.718-3.88,3.864-5.106,6.439
		c-1.228,2.576-1.84,5.52-1.84,8.832c0,2.516,0.382,4.678,1.149,6.486c0.767,1.81,1.917,3.404,3.45,4.784
		c1.532,1.38,3.45,2.576,5.75,3.588c2.3,1.012,5.015,1.948,8.143,2.806c2.575,0.736,4.906,1.412,6.991,2.024
		c2.085,0.613,3.864,1.288,5.337,2.025c1.472,0.735,2.605,1.595,3.403,2.575c0.797,0.982,1.196,2.178,1.196,3.588
		C200.888,234.835,197.392,237.073,190.399,237.073z"/>
	<path id="XMLID_789_" d="M228.809,237.947c2.79,3.098,6.133,5.581,10.028,7.451c3.894,1.872,8.233,2.807,13.018,2.807
		c4.601,0,8.862-0.904,12.788-2.714c3.925-1.809,7.298-4.232,10.12-7.268c2.82-3.036,5.028-6.532,6.624-10.487
		c1.594-3.956,2.392-8.111,2.392-12.467c0-4.108-0.768-8.156-2.3-12.144c-1.533-3.986-3.68-7.544-6.439-10.672
		c-2.761-3.128-6.088-5.658-9.983-7.59c-3.896-1.933-8.204-2.898-12.926-2.898c-4.601,0-8.864,0.905-12.788,2.714
		c-3.926,1.81-7.314,4.248-10.166,7.314c-2.853,3.067-5.092,6.594-6.716,10.58c-1.626,3.987-2.438,8.157-2.438,12.512
		c0,4.172,0.767,8.25,2.3,12.236C223.855,231.309,226.017,234.851,228.809,237.947z M234.144,207.127
		c0.828-2.607,2.038-4.937,3.634-6.992c1.595-2.054,3.588-3.71,5.98-4.968c2.392-1.257,5.12-1.886,8.188-1.886
		c2.944,0,5.597,0.598,7.958,1.794c2.36,1.195,4.355,2.806,5.98,4.83c1.624,2.023,2.882,4.355,3.772,6.991
		c0.889,2.639,1.334,5.368,1.334,8.189c0,2.699-0.414,5.351-1.241,7.958c-0.828,2.607-2.056,4.953-3.681,7.038
		c-1.626,2.086-3.619,3.758-5.98,5.014c-2.362,1.258-5.076,1.886-8.143,1.886c-3.006,0-5.689-0.612-8.05-1.84
		c-2.361-1.226-4.355-2.852-5.98-4.876c-1.626-2.023-2.868-4.354-3.727-6.992c-0.859-2.636-1.288-5.366-1.288-8.188
		C232.902,212.387,233.316,209.734,234.144,207.127z"/>
</g>
<g>
</g>
<g>
</g>
<g>
</g>
<g>
</g>
<g>
</g>
<g>
</g>
<g>
</g>
<g>
</g>
<g>
</g>
<g>
</g>
<g>
</g>
<g>
</g>
<g>
</g>
<g>
</g>
<g>
</g>
</svg>
